<svg id="record" xmlns="http://www.w3.org/2000/svg" width="32" height="32" viewBox="0 0 32 32">
  <path id="Path_4" data-name="Path 4" d="M26,32H6a6,6,0,0,1-6-6V6A6,6,0,0,1,6,0H26a6,6,0,0,1,6,6V26A6,6,0,0,1,26,32Z" fill="#e3e6f7"/>
  <path id="Path_8" data-name="Path 8" d="M21.833,24H10.5a2,2,0,0,1-2-2V10h0a2,2,0,0,1,2-2h10a.667.667,0,0,1,.667.667v2h.667a.667.667,0,0,1,.667.667v12A.667.667,0,0,1,21.833,24Zm-12-12.114V22a.667.667,0,0,0,.667.667H21.167V12H10.5A1.992,1.992,0,0,1,9.833,11.886ZM10.5,9.333a.667.667,0,1,0,0,1.334h9.333V9.333Z" fill="#3f51b5"/>
  <rect id="Rectangle_1" data-name="Rectangle 1" width="7" height="2" rx="1" transform="translate(12 14)" fill="#8895dd"/>
  <rect id="Rectangle_2" data-name="Rectangle 2" width="7" height="2" rx="1" transform="translate(12 18)" fill="#8895dd"/>
</svg>
